<?xml version="1.0" encoding="UTF-8"?>
<svg id="Calque_2" data-name="Calque 2" xmlns="http://www.w3.org/2000/svg" viewBox="0 0 751.96 992.14">
  <defs>
    <style>
      .cls-1 {
        stroke-width: 0px;
      }
    </style>
  </defs>
  <g id="Calque_2-2" data-name="Calque 2">
    <g>
      <path class="cls-1" d="m65.36,928.96c-17.37-24.34-22.2-45.07,37.1-87.68-6.16-6.02-14.74-11.17-17.88-18.62-2.08-4.93,3.64-13.15,6.32-21.27-11.86-16.5-10.91-22.36,7.72-37.13-13.27-18.85-13.07-19.53,8.39-27.47,36.36-13.46,58.14-48.16,51.87-85.81-11.25-67.62-23.79-135.02-35.32-202.6-1.88-10.99-6.13-14.89-17.25-12.2-11.17,2.71-22.63,4.28-34.01,6.12-23.05,3.73-38.99-5.15-43.05-23.81-4.1-18.83,6.36-33.14,28.95-39.63,1.65-.47,3.26-1.09,5.99-2.02-.02-3.57.47-7.48-.16-11.19-1.97-11.52,2.94-16.84,14.13-19.22,7.45-1.58,14.33-5.85,23.52-9.79-21-15.58-19.89-14.99-7.79-37.76,3.21-6.03.05-19.01-4.79-25.17-24.81-31.54-51.34-61.72-76.72-92.82-5.32-6.53-8.31-14.96-12.38-22.51,8.22-3.68,16.51-10.58,24.65-10.41,19.84.43,33.79-3.41,43.76-23.47,6.79-13.65,21.36-23.44,33.37-35.92-15.51-21.17-18-43.6,3.21-65.06,1.43-1.45,1.12-4.52,2.44-6.18,4.96-6.23,9.36-15.46,15.72-17.2,5.1-1.4,12.86,6.19,19.16,10.23,2.27,1.46,3.3,5.04,5.62,6.2,26.31,13.09,31.69,34.39,24.74,56.95,20.71,13.03,39.73,25.31,59.15,36.91,3.25,1.94,8.5,1.99,12.4,1.08,7.82-1.81,15.19-6.16,23.03-7.08,7.81-.92,19.21-1.78,23.05,2.59,3.68,4.19,1.35,15.72-1.23,23.01-13.22,37.29-27.98,74.05-40.9,111.43-4.63,13.4-7.02,26.39,12.69,34.53,14.62,6.04,6.38,19.07-3.59,30.38,6.48,2.29,11.3,5.4,16.16,5.47,24.88.36,24.88.08,32.18,21.98,4.65-.18,9.65-.58,14.65-.52,17.14.24,30.62,11.32,33.18,27.09,2.65,16.34-7.47,32.08-24.8,36.37-13.95,3.46-28.24,5.76-42.49,7.71-10.19,1.39-13.69,5.63-11.8,16.08,12.2,67.46,23.32,135.11,36.2,202.44,7.41,38.75,38.7,63.35,77.27,63.96,24.19.38,24.25.46,18.56,23.59,22.21,6.33,25.5,12.04,18.94,32.84,20.72,15.02,20.91,23.63,1.35,38.17,17.33,7.57,35.74,13.87,52.34,23.34,17.73,10.12,19.38,23.46,10.27,50,14.54,8.17,27.63,36.99,21.83,52.68-1.98,5.37-10.18,10.49-16.4,11.87-23.04,5.11-46.43,8.61-69.69,12.71-107.22,18.91-214.44,37.81-321.66,56.72-35.87,6.33-36.51,6.42-41.42-28.96-1.39-9.98,2.14-20.65,3.42-31Zm348.29-199.38c-7.33-2.97-17.44-4.03-22.02-9.61-7.08-8.63-13.85-7.77-22.65-6.19-71.45,12.77-142.69,27.19-214.55,36.92-26.64,3.61-39.63,19.94-56.04,34.85,7.14,3.76,13.12,6.92,19.11,10.07-5.06,8.82-10.12,17.65-17.21,30.03,22.71-1.78,45.22-2.21,67.28-5.55,40.43-6.11,80.59-13.95,120.88-20.99,4.51-.79,9.16-1.65,13.66-1.32,2.26.17,6.21,3.14,6.07,4.51-.27,2.76-2.23,6.5-4.57,7.65-4.01,1.97-8.82,2.42-13.35,3.22-45.94,8.15-91.69,17.86-137.92,23.8-33.12,4.26-54.67,24.42-75.36,46.41-4.9,5.2-7.62,19.34-4.14,24.07,6.66,9.06,10.9,22.97,29.53,19.53,118.39-21.84,236.96-42.77,355.69-62.68,18.64-3.12,18.64-17.41,21.33-28.2,1.54-6.19-6.34-18.87-13.15-22.27-27.02-13.47-54.84-26.67-86.73-16.48-4.89,1.56-10.26,2.9-15.27,2.5-5.31-.42-10.44-3.04-15.65-4.7,4.27-2.97,8.19-7.71,12.87-8.62,22.28-4.35,45.28-6.27,60.16-21.85-7.06-5.94-14.55-12.25-22.04-18.55,4.36-5.14,8.73-10.28,14.06-16.57Zm-270.85,7.47c72.28-12.75,140.18-24.72,210.55-37.13-3.88-4.49-5.25-7.26-7.46-8.46-31.53-17.11-46.12-44.54-51.71-79.14-10.01-61.99-21.87-123.68-32.24-185.62-2.19-13.07-6.51-17.44-20.3-14.54-29.86,6.29-59.99,11.57-90.2,15.89-13.99,2-16.36,7.6-13.93,20.66,11.88,64.01,22.7,128.21,34.23,192.29,5.41,30.08-.2,57.18-19.49,81.21-2.67,3.33-4.65,7.22-9.46,14.82ZM281.07,114.62c-10.59,3.31-18.41,4.93-25.5,8.15-15.51,7.03-26.51,5.98-40.52-7.43-38.47-36.82-103.78-32.32-131.39,12.81-17.39,28.43-36.79,35.92-65.66,33.44-.71-.06-1.52,1.16-3.22,2.55,2.93,2.85,5.97,5.32,8.44,8.27,26.09,31.21,52.75,61.98,77.81,94,10.65,13.6,13.2,30.46,5.51,47.81,47.16-8.32,93.45-16.48,140.39-24.75-16.93-12.09-17.45-29.56-13.37-45.1,8.44-32.14,19.61-63.59,30.54-95.02,3.87-11.13,10.32-21.36,16.96-34.74Zm5.21,209.86c-16.59,2.91-32.06,2.63-41.64-15.07-1.27-2.35-8.28-2.91-12.29-2.24-36.34,6.07-72.64,12.39-108.83,19.29-4.01.76-9.49,4.94-10.45,8.55-3.73,14.02-12.42,20.98-26.05,24.45-3.79.96-6.19,7.38-9.23,11.3,1.34,1.47,2.68,2.94,4.02,4.41,25.39-4.48,50.79-8.96,76.18-13.43,14.74-2.6,29.42-5.65,44.26-7.49,4.19-.52,8.82,2.5,13.25,3.89-3.38,2.98-6.37,6.69-10.25,8.71-3.41,1.77-7.82,1.65-11.79,2.34-42.52,7.46-85.03,15-127.57,22.35-13.62,2.35-26.3,6.92-22.98,23.61,3.09,15.58,16.01,15.28,29,12.97,81.61-14.54,163.24-28.95,244.91-43.17,13.21-2.3,24.96-7,22.47-22.44-2.49-15.43-15.06-16.65-28.34-14.08-14.69,2.84-29.41,5.71-44.25,7.51-3.93.48-8.32-2.88-12.5-4.48,3.57-2.85,6.76-6.62,10.81-8.31,4.67-1.95,10.07-2.28,15.2-2.94,11.04-1.42,11.74-6.88,6.07-15.72Zm205.8,549.32c-140.05,24.69-278.91,49.18-417.94,73.69,1.93,10.96,3.59,20.39,5.32,30.16,139.95-24.68,278.89-49.18,417.94-73.69-1.91-10.81-3.56-20.16-5.32-30.16ZM135.83,79.74c20.95-3.72,28-11.73,24.81-28.19-3.01-15.52-17.81-25.66-33.33-22.83-15.59,2.84-25.71,17.4-23.03,33.14,2.75,16.16,11.92,21.36,31.55,17.88Z"/>
      <path class="cls-1" d="m259.06,853.52c-8-28.81-5.45-49.94,64.86-69.71-3.73-7.77-10.03-15.54-10.44-23.61-.27-5.34,7.92-11.11,13.21-17.82-5.5-19.56-2.6-24.74,19.96-32.25-6.02-22.26-5.6-22.82,17.28-22.95,38.77-.22,71.1-25.37,78.09-62.89,12.55-67.39,23.83-135.01,36.11-202.46,2-10.97-.67-16.09-12.04-17.36-11.43-1.28-22.73-3.72-34.05-5.88-22.94-4.38-34.88-18.17-32.31-37.09,2.59-19.1,17.31-28.97,40.76-27.33,1.71.12,3.44.09,6.32.15,1.2-3.36,3-6.86,3.67-10.57,2.08-11.5,8.52-14.82,19.85-13.23,7.54,1.06,15.47-.59,25.45-1.15-14.4-21.82-13.57-20.89,5.59-38.15,5.08-4.57,6.55-17.84,4.1-25.29-12.52-38.12-27.14-75.55-40.35-113.46-2.77-7.95-2.69-16.9-3.93-25.39,8.98-.65,19.14-4.3,26.72-1.35,18.5,7.19,32.92,8.35,49.15-7.09,11.05-10.51,28.09-14.72,43.65-22.34-7.33-25.19-2-47.12,25.27-60.03,1.84-.87,2.6-3.86,4.41-4.97,6.79-4.16,14.08-11.32,20.65-10.79,5.27.43,9.97,10.22,14.51,16.17,1.64,2.15,1.38,5.87,3.16,7.75,20.24,21.3,18.01,43.15,3.77,61.98,15.01,19.33,28.68,37.37,42.96,54.92,2.39,2.94,7.31,4.77,11.29,5.26,7.97.97,16.38-.59,24.06,1.22,7.66,1.81,18.66,4.9,20.77,10.32,2.02,5.2-4.11,15.24-9.02,21.2-25.18,30.52-51.61,60.01-76.55,90.72-8.93,11.01-15.62,22.4.11,36.79,11.67,10.68-.53,20.1-13.77,27.32,5.3,4.36,8.77,8.94,13.32,10.67,23.26,8.84,23.35,8.59,22.72,31.66,4.43,1.42,9.27,2.75,13.94,4.53,16.03,6.09,24.9,21.11,21.92,36.8-3.1,16.26-17.99,27.59-35.74,25.7-14.29-1.52-28.5-4.24-42.56-7.29-10.05-2.18-14.79.6-16.59,11.08-11.61,67.56-24.29,134.94-35.23,202.61-6.29,38.94,14.7,72.77,50.73,86.53,22.6,8.63,22.63,8.73,9.38,28.51,18.7,13.54,19.85,20.03,6.56,37.33,14.34,21.2,11.56,29.35-11.79,36.33,13.7,13.04,28.85,25.26,41.2,39.83,13.2,15.58,10.19,28.68-7.45,50.49,10.87,12.65,13.31,44.21,2.49,56.97-3.7,4.36-13.16,6.37-19.47,5.54-23.39-3.08-46.57-7.79-69.83-11.89-107.22-18.9-214.44-37.81-321.66-56.71-35.87-6.32-36.5-6.46-29.02-41.38,2.11-9.86,9.08-18.67,13.81-27.96Zm395.47-68.24c-5.88-5.3-15.01-9.75-17.41-16.57-3.7-10.53-10.36-12.03-19.16-13.57-71.51-12.44-143.38-23.26-214.24-38.69-26.27-5.72-44.06,5.18-64.58,13.59,5.42,5.98,9.97,10.99,14.51,16-7.77,6.56-15.54,13.13-26.45,22.33,21.95,6.1,43.25,13.38,65.12,17.8,40.08,8.09,80.5,14.46,120.77,21.62,4.51.8,9.17,1.58,13.29,3.43,2.06.93,4.76,5.07,4.16,6.32-1.2,2.5-4.32,5.35-6.91,5.63-4.45.48-9.12-.74-13.65-1.54-45.96-8.06-92.26-14.58-137.74-24.81-32.58-7.33-59.72,4.25-86.69,17.83-6.38,3.21-13.77,15.57-12.12,21.21,3.16,10.79,2.38,25.31,21.06,28.45,118.72,19.96,237.3,40.85,355.68,62.76,18.59,3.44,23.47-9.98,29.69-19.21,3.57-5.29.5-19.9-4.74-25.43-20.78-21.9-42.41-43.82-75.86-45.15-5.13-.2-10.64-.78-15.2-2.87-4.84-2.21-8.77-6.43-13.1-9.77,5.03-1.34,10.34-4.44,15.04-3.7,22.43,3.53,44.7,9.6,64,.04-4.6-8-9.48-16.49-14.37-24.97,5.86-3.34,11.72-6.68,18.88-10.76Zm-257.07-85.61c72.28,12.75,140.18,24.72,210.55,37.13-2.11-5.55-2.45-8.61-4.12-10.5-23.78-26.86-28.11-57.63-21.52-92.05,11.8-61.68,21.75-123.7,33.19-185.45,2.41-13.03-.15-18.62-14.1-20.61-30.21-4.31-60.33-9.64-90.19-15.92-13.83-2.91-17.97,1.55-20.16,14.65-10.73,64.21-22.52,128.25-33.6,192.4-5.2,30.12-19.74,53.66-46.09,69.65-3.65,2.21-6.84,5.2-13.96,10.7ZM740.28,162.07c-11.09-.51-18.99-1.66-26.75-1.06-16.98,1.3-26.96-3.45-35.54-20.84-23.55-47.75-86.47-65.87-127.85-32.9-26.06,20.77-46.86,21.17-73.14,8.97-.64-.3-1.83.57-3.9,1.3,1.78,3.68,3.79,7.04,5.1,10.66,13.85,38.25,28.37,76.28,40.97,114.94,5.36,16.43,1.98,33.13-11.17,46.81,47.16,8.32,93.45,16.48,140.39,24.75-11.77-17.15-6.28-33.75,2.87-46.95,18.92-27.31,40.17-53.05,61.2-78.84,7.44-9.13,17.01-16.54,27.82-26.85Zm-66.88,198.98c-16.59-2.94-31.02-8.49-33.97-28.41-.39-2.64-6.79-5.56-10.79-6.31-36.22-6.72-72.5-13.2-108.86-19.1-4.03-.65-10.61,1.4-12.75,4.46-8.3,11.9-18.84,15.46-32.84,14.06-3.89-.39-8.35,4.82-12.54,7.46.76,1.84,1.52,3.68,2.28,5.52,25.39,4.48,50.79,8.95,76.18,13.43,14.74,2.6,29.58,4.76,44.15,8.1,4.12.94,7.43,5.36,11.12,8.19-4.19,1.64-8.28,4.11-12.61,4.67-3.81.5-7.91-1.13-11.88-1.83-42.51-7.53-85.03-14.99-127.52-22.63-13.6-2.45-27.08-2.5-29.67,14.33-2.42,15.7,9.82,19.84,22.81,22.1,81.66,14.25,163.3,28.63,244.91,43.2,13.2,2.36,25.85,1.96,28.79-13.4,2.94-15.35-8.46-20.8-21.81-22.92-14.78-2.35-29.59-4.7-44.15-8.07-3.85-.89-6.83-5.55-10.22-8.49,4.33-1.46,8.61-3.91,13-4.11,5.05-.24,10.24,1.3,15.29,2.44,10.86,2.44,13.39-2.45,11.08-12.69Zm5.51,586.58c-140.05-24.69-278.91-49.18-417.94-73.69-1.93,10.96-3.59,20.39-5.32,30.16,139.95,24.68,278.89,49.18,417.94,73.69,1.91-10.81,3.56-20.16,5.32-30.16Zm-63.18-868.01c20.96,3.67,30.33-1.44,32.95-18,2.48-15.62-7.96-30.2-23.51-32.85-15.62-2.66-30.11,7.56-32.98,23.26-2.95,16.12,3.9,24.15,23.53,27.59Z"/>
    </g>
  </g>
</svg>