<?xml version="1.0" encoding="UTF-8"?>
<svg id="Calque_2" data-name="Calque 2" xmlns="http://www.w3.org/2000/svg" viewBox="0 0 437.2 1000">
  <defs>
    <style>
      .cls-1 {
        stroke-width: 0px;
      }
    </style>
  </defs>
  <g id="Calque_2-2" data-name="Calque 2">
    <g>
      <path class="cls-1" d="m317.7,397.13c2.21,5.43,4.25,10.94,6.67,16.28,2.13,4.7,3.49,10.89,7.23,13.52,13.8,9.72,28.82,17.73,42.61,27.47,5.48,3.87,13.53,12.03,12.38,15.75-2.61,8.41-8.9,17.14-16.15,22.25-7.67,5.41-18.76,5.72-27.25,10.3-5.9,3.18-11.95,9.01-14.41,15.09-5.64,13.95-9.66,28.65-13.24,43.31-1.66,6.81-.83,14.25-.99,21.4-.41,18.63-.84,37.27-1.03,55.9-.06,5.97-.4,12.25,1.21,17.86,2.94,10.23,7.83,19.89,10.82,30.1,3.62,12.37,8.86,21.36,23.47,23.34,11.75,1.59,16.33,10.85,13.1,22.03-6.25,21.62.39,36.96,19.71,48.21,10.72,6.24,20.32,14.38,30.5,21.55,15.07,10.62,19.32,24.19,16.82,42.86-4,29.88-5.08,60.18-6.84,90.34-1.24,21.2-3.8,27.43-24.39,32.44-40.08,9.74-80.32,20.24-121.12,25.25-43.06,5.28-86.76,11.76-130.36,4.11-38.52-6.77-76.8-14.84-115.2-22.27-10.73-2.08-13.81-8.26-13.37-19.09.93-23.1.72-46.28.1-69.4-.17-6.4-2.49-13.21-5.46-18.98-6.7-12.98-5.39-24.95,2.71-36.4,4.35-6.15,9.06-12.21,14.44-17.45,15.41-15,31.25-29.55,47.79-45.09-1.74,4.5-2.36,10.4-5.61,13.76-11.69,12.06-23.96,23.61-36.6,34.69-16.29,14.28-23.29,28.48-15.57,44.08,5.17,10.45,14.85,20.21,24.9,26.38,24.45,14.99,52.82,18.25,80.76,20.43,67.91,5.29,135.29.85,201.33-16.26,17.87-4.63,34.71-13.37,51.76-20.85,3.5-1.53,5.77-5.86,8.61-8.9-.73-.91-1.46-1.81-2.19-2.72-7.53,1.66-15.05,3.32-22.58,4.98-.34-.81-.68-1.63-1.02-2.44,3.87-1.72,7.78-3.36,11.6-5.18,12.03-5.74,24.48-10.76,35.9-17.52,13.49-7.98,14.5-13.59,2.85-23.26-13.96-11.59-29.49-21.37-44.87-31.09-2.16-1.37-7.95,1.25-11.06,3.44-19.39,13.65-41.04,20.04-64.44,21.39,23.92-6.85,48.67-11.69,67.41-29.26-4.86-10.18-9.39-19.66-14.16-29.64-59.49,12.83-120.68,17.06-182.23,15.97-.13-1.86-.27-3.72-.4-5.58,16.24-.7,32.48-1.41,48.72-2.1,41.46-1.77,82.42-6.85,122.35-18.6,5.07-1.49,10.9-2.76,14.53-6.12,3.37-3.13,6.9-12.05,5.77-13-4.79-4.05-9.29-8.07-18.09-2.71-12.9,7.86-27.95,13.22-42.78,16.68-56.85,13.27-114.02,10.93-170.93-.05-8.92-1.72-17.09-7.33-25.02-12.44-18.78,1.1-22.98,7.86-20.36,32.35-1.31.1-2.61.21-3.92.31-.6-7.49-3.41-15.73-1.17-22.25,2.2-6.38,8.67-14.16,14.76-15.8,18.79-5.08,23.62-19.7,27.96-35.11,4.76-16.93,14.62-31.58,7.96-52.32-5.32-16.56.42-36.62.83-55.14.09-3.79-1.17-7.82-2.63-11.41-6.18-15.24-12.09-30.65-19.4-45.35-2.28-4.58-8.15-8.42-13.23-10.37-12.72-4.88-27.06-6.48-38.64-13.1-14.34-8.2-12.97-20.32,1-30.19-6.33,16.32-.1,29.01,17.29,32.48,13.91,2.78,28.17,5.21,42.28,5.29,56.09.31,112.2-.16,168.29-.83,11.24-.13,22.46-2.41,33.68-3.7-.1-1.05-.19-2.09-.29-3.14h-77.96c11.8-2.92,23.73-1.91,35.42-3.12,30.48-3.15,60.93-6.83,91.21-11.43,5.35-.81,11.07-6.36,14.11-11.28,1.02-1.65-4.95-9.32-9.14-12.17-12.11-8.25-24.68-15.92-37.6-22.83-5.14-2.75-12.07-4.97-17.5-3.92-57.6,11.16-115.41,7.62-172.6-.43-17.26-2.43-31.11-4.11-45.1,6.26,1.09-1.85,1.72-4.62,3.33-5.41,10.02-4.94,16.26-11.43,12.85-23.75-.58-2.09.78-6.1,2.53-7.25,12.67-8.26,8.68-20.19,6.69-31.13-.81-4.43-4.29-9.32-7.98-12.09-11.55-8.66-11.8-13.14-3.87-24.98,3.47-5.18,4.47-13.25,3.81-19.72-1.38-13.43-4.61-26.67-7.08-39.99,1.16-.26,2.32-.53,3.48-.79,2.38,10.13,5.1,20.2,7.04,30.41,2.61,13.76,2.42,28.98,22.87,31.44-9.6,10.35-22.52-8.66-28.31,8.34,5.97,9.48,15.54,14.93,27.01,15.6,49.35,2.9,98.8,5.48,147.66-4.67,11.87-2.47,23.08-8.09,34.6-12.26-.1-1.39-.21-2.77-.31-4.16-3.81-.62-7.89-2.45-11.38-1.66-50.49,11.41-101.42,8.21-152.31,6.78-.2-1.22-.4-2.43-.6-3.65,3.34-.81,6.69-2.34,10.03-2.31,11.57.09,23.15.52,34.7,1.18,29.45,1.67,56.37-6.21,81.41-21.26,13.21-7.94,21.41-19.71,26.01-34.3,9.36-29.66,19.12-59.19,28.08-88.97,1.12-3.73-.22-9.78-2.78-12.71-4.88-5.6-10.96-10.57-17.42-14.28-14.16-8.13-22.31-19.72-24.94-35.81-1.12-6.87-3.85-13.47-5.16-17.88-15.82-.86-29.81-2.01-43.79-2.07-2.92-.01-6.77,3.41-8.66,6.26-15.95,24.12-31.52,48.49-47.26,72.75-3.12,4.81-6.48,9.46-10.66,15.54-35.73-33.25-66.31-69.06-87.82-113.35-11.25,5.97-21.69,11.52-32.65,17.34,16.47,47.28,32.62,93.64,48.77,139.99-1.15.43-2.29.86-3.44,1.29-3.75-9.52-7.75-18.94-11.2-28.56-12.17-33.89-24.44-67.75-36-101.85-3.06-9.03-7.77-13.61-17.13-15.89-19.56-4.76-25.29-9.62-31.8-23.05.64-.2,1.65-.76,1.88-.53,21.06,21.05,26.69,20.26,43.84-4.44,5.71-8.23,8.43-19.12,21.06-22.11,3.67-.87,5.29-10.41,8.49-17.39,1.53,4.12,2.52,6.78,3.98,10.72,2.36-3.59,4.15-6.32,4.26-6.49h15.79c.71-1.31,1.42-2.63,2.14-3.94-6.5-9.62-13-19.24-19.92-29.47,10.34,2.95,16.92,10.23,21.17,20.09,8,18.58,4.13,34.38-14.75,59.65,2.16,3.26,4.5,6.79,6.9,10.4,9.16-7.84,16.45-1.83,22.85,12.43,11.2,24.91,23.33,49.6,41.77,70.34,1.13,1.27,2.83,2.02,6.65,4.65,2.22-18.38,4.83-35.12,5.77-51.96.18-3.13-5.91-7.18-9.77-9.87-20.36-14.17-40.93-28.04-61.42-42.02.86-1.34,1.73-2.68,2.59-4.03,22.89,14.58,45.79,29.15,68.91,43.88,3.86-3.2,7.03-6.35,10.69-8.77,18.42-12.15,27.57-25.83,20.51-50.46-7-24.4,14.64-47.67,40.31-48.66,22.02-.85,42.31,5.23,60.74,17.1,13.25,8.53,17.8,18.36,11.89,33.12-6.11,15.25-15.4,29.22-23.3,43.74-1.22-.43-2.44-.86-3.65-1.29,1.85,3.92,3.7,7.83,6.59,13.95,15.1-10.63,29.33-20.66,44.33-31.22-10.35-14.55-12.15-28.43-7.02-43.23,4.5-12.99,13.74-20.64,26.82-23.45,31.55-6.8,68.74,16.41,76.42,47.38,4.68,18.87-15.33,47.78-34.63,46.37-18.52-1.35-27.37,7.44-35.48,21.51-32.48,56.37-52.52,116.62-57.67,181.58-.28,3.53,2.13,8.41,4.89,10.85,11.26,9.99,12.6,15.03,2.96,26.67-9.46,11.42-7.08,24.33-6.16,36.99.2,2.71,5.01,5.09,7.69,7.62-28.36,15.27-59.37,11.06-89.51,11.41-29.93.35-60.26,2.36-89.41-6.86,14.76-1.2,29.43-1.9,44.01-1.06,37.03,2.13,73.84,1.77,110.19-6.72,7.2-1.68,12.82-4.24,7.68-13.24-20.75,11.88-39.47,15.86-53.61,11.06,6.35-4.2,11.78-9.49,18.26-11.67,9.61-3.24,19.96-4.26,29.98-6.25,2.41-.48,6.66-.68,6.88-1.7,1.8-8.25-3.85-7.92-9.63-7.96-37.82-.32-75.65-.52-113.46-1.39-18.49-.43-36.94-2.21-56.55-3.45,0,9.74.56,17.71-.21,25.56-.44,4.5-2.18,9.41-4.82,13.06-7.58,10.49-6.76,15.75,6.04,18.93,14.53,3.61,29.55,5.3,44.38,7.66,45.28,7.21,89.47-1.85,133.72-9.3,9.75-1.64,15.57-7.98,15.66-18.48Zm26.12,559.55c13.01-11.92,26.53-23.34,38.91-35.88,23.4-23.73,29.51-33.72,28.77-40.37-19.58,8.13-39.12,19.72-60.18,24.32-60.06,13.11-121.09,19.88-182.76,16.69-43.69-2.26-86.8-7.55-125.67-30.35-5.46-3.2-11.88-4.78-17.9-7.13-.68,2.05-.95,2.48-.94,2.9.31,14.22.61,28.45,1,42.67q.65,23.91,22.93,32.48c2.48.95,5.04,1.71,7.57,2.55,40.22,13.5,81.74,15.77,123.75,15.16,60.98-.88,121.9-2.03,181.17-18.78,8.13-2.3,15.58-7.03,23.35-10.64-.6-1.19-1.2-2.38-1.8-3.56-4.29,2.19-8.58,4.37-12.87,6.56,14.74-18.93,35.27-32.67,41.63-57.28-16.74,26.51-37.92,48.08-66.94,60.67Zm-55.72-240.75c.38.41.77.82,1.15,1.22,3.1-2.74,6.33-5.35,9.28-8.25,22.54-22.07,22.25-21.98,10.98-51.02-2.84-7.31-5.62-9.02-13.62-7.34-39.92,8.39-80.23,10.5-120.66,3.82-13.87-2.29-27.54-5.76-41.73-8.79-7.79,21.07-14.94,41.15-22.67,61-3.12,7.99.04,11.58,7.12,13.83,54.06,17.19,108.58,15.58,163.33,3.99.89-.19,1.49-1.8,3.01-3.75h-13.05c12.17-11.35,23.06-21.5,33.95-31.66.86.72,1.72,1.43,2.58,2.15-6.56,8.26-13.11,16.53-19.67,24.79Zm-180.42-203.12c8.74,21.41,16.97,43.84,27.29,65.28,2.66,5.52,11.38,9.63,18.11,11.44,47.53,12.75,93.32,4.38,138.08-13.11,3.56-1.39,8.25-3.69,9.43-6.73,7.09-18.22,13.31-36.78,20.4-56.89H107.68Zm14.5,73.43c1.03,14.93,2.37,26.85,2.49,38.77.07,7.6,3.3,10.33,10.16,12.78,35.88,12.84,72.96,9.26,109.68,8,16.64-.57,33.44-4.31,49.55-8.8,6.05-1.69,13.52-8.9,14.8-14.8,2.38-10.95.68-22.78.68-36.72-62.71,20.6-123.95,19.97-187.36.76ZM206.73,53.84c.47,2.84.95,7.28,1.96,11.6,2.61,11.21,7.32,19.05,21.16,14.17,12.47-4.4,25.53-7.26,37.74-12.24,7.21-2.94,11.5-1.34,15.52,4.15.96,1.31,1.52,4.29,2.13,4.26,6.56-.39,15.13,1.01,19.06-2.57,4.17-3.79,6.47-12.99,5.19-18.87-6.82-31.28-53.91-51.44-81.97-35.65-12.89,7.25-20.22,18.45-20.79,35.14Zm187.61,18.72c2.53,3.68,3.96,7.9,6.82,9.44,4.65,2.5,10.19,4.01,15.45,4.37,2.37.16,6.2-2.95,7.32-5.48,6.44-14.56,4.09-29.15-9.2-38.04-12.58-8.42-26.87-15.83-41.46-19.36-20.78-5.03-41.3,15.67-38.69,37.09.42,3.46,6.04,8.9,9.3,8.94,11.44.13,22.92-1.5,34.34-2.85,8.24-.98,16.4-2.57,24.59-3.9.16.83.31,1.67.47,2.5-3.29,2.68-6.59,5.37-8.95,7.29Zm-24.56,38.33c-7.14-5.14-13.07-9.8-19.42-13.79-2.71-1.7-7.51-3.81-9.29-2.63-13.45,8.98-26.38,18.74-41.18,29.49,13.01,16.47,24.36,30.84,37.94,48.03,11.71-22.39,21.47-41.06,31.95-61.1Zm-169.91-12.29c-2.28,8.37-3.32,13.46-5.05,18.31-3.53,9.9-5.88,20.72-11.6,29.22-6.53,9.72-6.49,18.88-5.53,28.89,1.23.57,2.45,1.13,3.68,1.7,15.38-24.56,30.76-49.12,46.46-74.19-6.22-4.69-11.02-8.32-16.76-12.66-2.55,7.01-4.61,12.7-6.9,18.99-.99-2.36-1.78-4.23-4.31-10.25Zm220.1-6.05c-27.84,7.7-50.15-4.6-73.42-12.8,1.25,2.45,2.77,4.05,4.63,4.94,14.25,6.77,28.15,14.61,43,19.63,9.18,3.1,20.52,3.42,25.78-11.76Zm-98.16,602.82c-9.2,8.16-17.34,15.39-26.98,23.95,21.47-3.99,31.01-12.27,26.98-23.95ZM89.18,48.66c-3.4,9.52-6.37,17.85-10.07,28.2,17.27-12.93,18.99-17.99,10.07-28.2Z"/>
      <path class="cls-1" d="m46.7,838.79c-2.41-4.58-3.73-7.09-5.05-9.59.93-.56,1.85-1.12,2.78-1.68,3.53,5.79,6.14,12.52,10.84,17.1,4.52,4.4,10.86,8.04,16.99,9.45,22.47,5.14,45.19,9.22,67.81,13.68,2.03.4,4.09.69,8.8,1.46-43.76,6.91-105.99-13.63-115.63-38.23,4.63,2.69,8.13,4.73,13.46,7.82Z"/>
      <path class="cls-1" d="m61.29,120.81c21.23,36.38,39.37,73.85,47.28,115.34-15.76-38.45-31.52-76.89-47.28-115.34Z"/>
      <path class="cls-1" d="m239.53,312.31c-7.33-23.61,13.11-26.1,20.07-37.15,1.05.68,2.1,1.36,3.15,2.05-7.21,10.89-14.41,21.79-23.22,35.1Z"/>
      <path class="cls-1" d="m292.06,256.29c-13.71,17.89-27.43,35.78-41.14,53.67-.96-.71-1.91-1.43-2.87-2.14,13.45-18.09,26.89-36.19,40.34-54.28,1.22.92,2.45,1.84,3.67,2.76Z"/>
      <path class="cls-1" d="m132.4,754.85c-19.11,3.66-46.08-3.99-51.72-13.9,16.78,4.51,34.5,9.27,51.72,13.9Z"/>
      <path class="cls-1" d="m58.56,3.24c-6.44,2.39-12.88,4.78-20.23,7.5,2.8,2.58,5.02,4.63,8.25,7.61-9.69-1.18-17.75-2.15-29.97-3.64C32.23,9.07,44.8,4.54,57.37,0c.4,1.08.79,2.16,1.19,3.24Z"/>
      <path class="cls-1" d="m63.29,481c37.8,2.53,75.59,5.07,113.39,7.6-.08,1.21-.16,2.41-.25,3.62-37.78-2.44-75.56-4.87-113.35-7.31.07-1.3.14-2.61.2-3.91Z"/>
      <path class="cls-1" d="m315.21,962.83c1.1-1.66,2.2-3.32,2.37-3.56-17.39,3.21-35.43,6.53-53.47,9.85-.49-1.21-.97-2.42-1.46-3.63,13.12-9.26,26.25-18.51,41.65-29.38-1.82,5.16-2.81,7.97-4.7,13.32,12.15-9.08,22.52-16.82,32.88-24.56l2.05,1.85c-4.91,5.67-9.81,11.35-14.72,17.02.54.73,1.07,1.47,1.61,2.2,12.51-9.71,25.02-19.42,39.43-30.6-1.94,4.75-3.17,7.75-5.46,13.32,12.13-10.24,22.22-18.76,32.3-27.27-17.61,28.2-41.23,49.42-72.48,61.44Z"/>
      <path class="cls-1" d="m30.81,898.27c22.82,8.23,43.43,15.67,67.02,24.18-25.38-3.31-46.86-8.36-67.02-24.18Z"/>
      <path class="cls-1" d="m281.82,689.91c.52,1.84,1.05,3.69,1.6,5.65,3.94-2.51,7.52-4.79,12.32-7.85-11.47,20.91-23.92,28.95-45.4,29.76,3.22-3.65,6.08-6.88,8.94-10.11-.27-.47-.54-.95-.81-1.42-3.02,1.49-6.04,2.99-9.06,4.48-.53-1.03-1.05-2.06-1.58-3.09,11.31-5.8,22.61-11.59,33.99-17.42Z"/>
      <path class="cls-1" d="m265.99,557.06c8.31-6.6,16.62-13.21,24.89-19.77,14,11.66,13.1,16.64-6.64,29.43,2.42-4.28,3.98-7.03,5.32-9.39-13.03,7.78-26.46,15.81-39.9,23.84l-2.62-3.06c2.45-3.13,4.78-6.37,7.4-9.35,2.62-3,5.53-5.75,8.31-8.61,1.08-1.03,2.16-2.05,3.24-3.08Z"/>
      <path class="cls-1" d="m265.99,557.06c-1.08,1.03-2.16,2.05-3.24,3.08-17.14,8.28-34.28,16.56-51.41,24.84-.51-.86-1.02-1.72-1.52-2.58,22.88-15.21,45.77-30.43,68.65-45.64.51.39,1.01.78,1.52,1.18-4.66,6.37-9.33,12.75-13.99,19.12Z"/>
    </g>
  </g>
</svg>